<?xml version="1.0" encoding="UTF-8"?>
<svg version="1.1" xmlns="http://www.w3.org/2000/svg" width="468" height="468">
<path d="M0 0 C0.59876953 0.75595459 1.19753906 1.51190918 1.81445312 2.29077148 C4.29676455 5.36787268 6.60761944 6.82846347 10.03125 8.78515625 C10.90605766 9.29119133 10.90605766 9.29119133 11.79853821 9.80744934 C13.69397664 10.9015219 15.59691968 11.98178536 17.5 13.0625 C18.8296916 13.82777336 20.15870637 14.59422389 21.48706055 15.36181641 C24.12674433 16.88684622 26.76846323 18.40824672 29.41162109 19.92724609 C33.9127371 22.52012818 38.36818469 25.18612411 42.8125 27.875 C48.96092689 31.58522318 55.12617664 35.26593243 61.3046875 38.92578125 C62.03453354 39.35826172 62.76437958 39.79074219 63.51634216 40.23632812 C66.47504265 41.98930713 69.43386322 43.74207301 72.3944397 45.49188232 C74.46553239 46.7159828 76.53557708 47.94183885 78.60546875 49.16796875 C79.23673676 49.54029129 79.86800476 49.91261383 80.5184021 50.29621887 C84.88654706 52.88654706 84.88654706 52.88654706 86 54 C87.45620979 54.13053673 88.91529026 54.22983035 90.375 54.3125 C94.71402372 54.77468536 94.71402372 54.77468536 97.0625 56.625 C98 59 98 59 97.875 62.2980957 C98.01354316 66.40108383 98.79759797 68.15633245 100.9375 71.60546875 C101.89740845 73.18376465 101.89740845 73.18376465 102.87670898 74.79394531 C103.22224823 75.34618774 103.56778748 75.89843018 103.92379761 76.46740723 C105.39861392 78.82460407 106.83976449 81.20175916 108.2830658 83.57833862 C109.03957813 84.82360104 109.7977909 86.06783189 110.55763245 87.31106567 C114.66300909 94.04157049 118.55360961 100.89014619 122.4375 107.75 C127.35659694 116.42135969 132.34675685 125.03039447 137.59375 133.5078125 C139 136 139 136 139 138 C139.763125 138.0825 140.52625 138.165 141.3125 138.25 C144 139 144 139 145.875 140.6875 C147.39531648 143.81259499 146.87956042 145.70164844 146 149 C145.67 149.33 145.34 149.66 145 150 C145.19380915 158.57139606 146.66476278 167.1108354 148 175.5625 C148.17789062 176.72330078 148.35578125 177.88410156 148.5390625 179.08007812 C149.21071327 186.70694701 149.21071327 186.70694701 153.125 192.75 C155 195 155 195 155.125 198.4375 C153.89898636 202.31987652 152.66938784 203.15107309 149.59130859 205.5871582 C146.91309801 207.96500488 145.14624631 210.86271111 143.25 213.875 C142.39563671 215.20774056 141.54013249 216.53975029 140.68359375 217.87109375 C140.02979736 218.89178955 140.02979736 218.89178955 139.36279297 219.93310547 C137.99353805 222.00980058 136.56093134 224.02382704 135.09765625 226.03515625 C134.39817871 227.01669678 134.39817871 227.01669678 133.68457031 228.01806641 C132.79292324 229.26542037 131.88542152 230.50164446 130.95996094 231.72412109 C128.59507105 235.09375837 127.74370928 237.28537695 128.328125 241.28515625 C128.54984375 242.51105469 128.7715625 243.73695313 129 245 C127.4375 247.5 127.4375 247.5 125 249 C120.89222251 249.50299316 119.49124017 249.32749345 116 247 C116 246.34 116 245.68 116 245 C114.08302063 245.14166357 112.16642277 245.28849584 110.25 245.4375 C108.64898437 245.55931641 108.64898437 245.55931641 107.015625 245.68359375 C106.02046875 245.78800781 105.0253125 245.89242187 104 246 C103.25234375 246.07347656 102.5046875 246.14695312 101.734375 246.22265625 C99.77927016 246.86788317 99.77927016 246.86788317 99.05859375 249.1015625 C98.70925781 250.05804688 98.35992187 251.01453125 98 252 C96.05180366 255.19295366 93.86131449 258.2308465 91.72070312 261.296875 C89.58069744 264.42236766 87.75341327 267.37401403 86.3515625 270.90234375 C85 274 85 274 82.3125 275.1875 C79.01613224 275.00091315 78.12669571 274.63961191 75.41796875 273.05078125 C70.65670979 270.5890405 66.29642276 270.20062207 61 270 C60.14921875 269.93683594 59.2984375 269.87367188 58.421875 269.80859375 C52.35860146 269.52030927 48.04348818 270.56658944 43 274 C41.14742178 275.58764905 41.14742178 275.58764905 40.0625 277.375 C39.68222656 277.91898437 39.30195313 278.46296875 38.91015625 279.0234375 C37.20862323 282.71861222 36.50857226 285.41649284 37.75024414 289.41748047 C38.90124122 292.25090171 40.17322624 294.99468289 41.5 297.75 C41.9228125 298.70777344 42.345625 299.66554688 42.78125 300.65234375 C45.39541981 306.40310637 45.39541981 306.40310637 50.71875 309.453125 C51.8015625 309.63359375 52.884375 309.8140625 54 310 C56.32749345 313.49124017 56.50299316 314.89222251 56 319 C54.375 321.375 54.375 321.375 52 323 C48.8125 323.3125 48.8125 323.3125 46 323 C45.67 322.67 45.34 322.34 45 322 C43.49623263 322.06564064 41.99547958 322.20421992 40.5 322.375 C39.15808594 322.52388672 39.15808594 322.52388672 37.7890625 322.67578125 C36.86867188 322.78277344 35.94828125 322.88976562 35 323 C33.29170646 323.18786219 31.58337632 323.37539212 29.875 323.5625 C28.59625 323.706875 27.3175 323.85125 26 324 C25.87625 324.61875 25.7525 325.2375 25.625 325.875 C25 328 25 328 23 330 C19.12191063 330.43089882 16.89769286 330.65507317 13.6875 328.3125 C12 326 12 326 11.22265625 323.66796875 C9.65323799 320.24332763 7.57838604 318.47290582 4.75 316 C3.76 315.13375 2.77 314.2675 1.75 313.375 C0.8425 312.59125 -0.065 311.8075 -1 311 C-1.598125 310.443125 -2.19625 309.88625 -2.8125 309.3125 C-5.46740994 306.88845179 -7.13296668 305.96844859 -10.6875 305.125 C-11.780625 304.75375 -12.87375 304.3825 -14 304 C-14.72788939 302.29471806 -15.45014172 300.58640112 -16.12231445 298.85839844 C-17.55622979 295.82224725 -19.82531128 293.84157194 -22.25 291.5625 C-25.3830659 288.59316777 -28.35650859 285.63891536 -31.16796875 282.36328125 C-35.44366492 277.41632536 -39.99519202 272.74747667 -44.59790039 268.10693359 C-45.58056541 267.11263843 -46.55871808 266.11386489 -47.5324707 265.11083984 C-48.96112929 263.63946706 -50.4026315 262.18184457 -51.84765625 260.7265625 C-52.69336182 259.86627441 -53.53906738 259.00598633 -54.41040039 258.11962891 C-57.21037361 255.82780582 -59.57168449 255.03952033 -63 254 C-64.12109375 251.94140625 -64.12109375 251.94140625 -65 250 C-66.86862697 249.19145941 -66.86862697 249.19145941 -69.0625 248.9375 C-72.38493141 248.36083595 -75.20517164 247.54850036 -78.3125 246.25 C-84.1486182 244.32489157 -89.31463327 244.69473936 -95 247 C-98.51479111 249.448762 -101.51656577 252.41434155 -104.50390625 255.46875 C-107 258 -107 258 -110 260 C-110.495 260.99 -110.99 261.98 -111.5 263 C-113 266 -113 266 -116 268 C-119.6875 267.625 -119.6875 267.625 -123 267 C-123.33 266.01 -123.66 265.02 -124 264 C-124.5674292 263.89768066 -125.1348584 263.79536133 -125.71948242 263.68994141 C-134.2191741 262.0813648 -142.48551983 259.73486473 -150.80664062 257.390625 C-151.91845703 257.08382813 -153.03027344 256.77703125 -154.17578125 256.4609375 C-155.17520752 256.18040527 -156.17463379 255.89987305 -157.2043457 255.61083984 C-159.91920831 255.01765268 -162.23248161 254.80638128 -165 255 C-165.33 255.33 -165.66 255.66 -166 256 C-169.72480595 256.41386733 -171.38125927 256.48847952 -174.375 254.125 C-176 252 -176 252 -176 250 C-177.65890259 249.82537231 -177.65890259 249.82537231 -179.35131836 249.6472168 C-184.45014973 249.00761704 -189.38529349 247.83645842 -194.37890625 246.64453125 C-196.37156179 246.18215332 -198.36440627 245.72058907 -200.35742188 245.25976562 C-203.46872126 244.5367397 -206.57847764 243.8086839 -209.68530273 243.06665039 C-212.70476421 242.34782176 -215.72859543 241.65076781 -218.75390625 240.95703125 C-219.67700089 240.73110794 -220.60009552 240.50518463 -221.55116272 240.27241516 C-227.19864574 238.99947411 -230.55657031 239.0738768 -236 241 C-238.875 240.25 -238.875 240.25 -241 239 C-242 237 -242 237 -241.79345703 233.56469727 C-241.73434142 227.83297926 -244.04396469 223.1379163 -246.3046875 217.96484375 C-246.74386505 216.92735489 -247.1830426 215.88986603 -247.63552856 214.82093811 C-249.03530259 211.52056616 -250.45419394 208.2288654 -251.875 204.9375 C-253.28506914 201.64115628 -254.69104138 198.34313094 -256.0930481 195.04335022 C-256.96458341 192.9953049 -257.8413528 190.94947664 -258.72409058 188.90623474 C-260.83141458 183.9854781 -262.68427416 179.19140629 -264 174 C-264.61875 173.95875 -265.2375 173.9175 -265.875 173.875 C-268 173 -268 173 -269.5 170.4375 C-270.08892131 166.38866598 -268.97492786 164.86066565 -267.12490845 161.35128784 C-265.05334562 157.02129947 -263.83735757 152.41828424 -262.51171875 147.81640625 C-262.20426224 146.76146469 -261.89680573 145.70652313 -261.58003235 144.61961365 C-260.9364688 142.39955182 -260.29714926 140.17825577 -259.66186523 137.95581055 C-258.69001236 134.57124951 -257.69232681 131.19500194 -256.69335938 127.81835938 C-256.06871458 125.65150166 -255.44561542 123.48419767 -254.82421875 121.31640625 C-254.52537277 120.31613907 -254.22652679 119.31587189 -253.91862488 118.28529358 C-252.3808292 112.79708711 -251.73589124 108.48796271 -252.83454895 102.85777283 C-253 101 -253 101 -251.4375 98.0625 C-249 96 -249 96 -246.3125 95.31640625 C-241.68243023 93.47639032 -238.96511169 90.43581271 -235.5625 86.875 C-234.56246948 85.85176636 -234.56246948 85.85176636 -233.54223633 84.80786133 C-229.79100343 80.94604056 -226.14425857 77.02036281 -222.68359375 72.89453125 C-219.72911559 69.56988646 -216.46192707 66.54934086 -213.234375 63.4921875 C-210.81892502 61.11497303 -210.81892502 61.11497303 -209.890625 57.8828125 C-207.27522098 53.89486174 -204.84859216 53.9086766 -200.33691406 52.88671875 C-196.55511028 51.88177938 -193.05798139 50.45884362 -189.4921875 48.875 C-188.47496613 48.42333214 -188.47496613 48.42333214 -187.43719482 47.96253967 C-185.24675362 46.98164664 -183.06080941 45.99116683 -180.875 45 C-179.30943074 44.2970304 -177.74367092 43.59448504 -176.17773438 42.89233398 C-162.23578592 36.62360646 -148.36399499 30.19937455 -134.51123047 23.73632812 C-125.99390502 19.76325063 -117.46431731 15.81825773 -108.90625 11.93359375 C-108.04439087 11.53930679 -107.18253174 11.14501984 -106.29455566 10.73878479 C-105.10170959 10.19990883 -105.10170959 10.19990883 -103.88476562 9.65014648 C-103.18146118 9.33077621 -102.47815674 9.01140594 -101.75354004 8.68235779 C-100 8 -100 8 -98 8 C-97.67 7.01 -97.34 6.02 -97 5 C-94.26752652 3.63376326 -92.01801098 3.871574 -89 4 C-88.67 4.33 -88.34 4.66 -88 5 C-85.54465584 5.10474517 -83.12381275 5.13707242 -80.66796875 5.12109375 C-79.87931931 5.11822861 -79.09066986 5.11536346 -78.27812195 5.1124115 C-67.49847938 5.03207771 -56.7264669 4.61065081 -45.95532227 4.20043945 C-42.28093573 4.06130478 -38.60632695 3.92977952 -34.93164062 3.79882812 C-32.57550401 3.71138975 -30.21938353 3.62351513 -27.86328125 3.53515625 C-26.23039909 3.47727684 -26.23039909 3.47727684 -24.56452942 3.41822815 C-16.55717963 3.10524665 -7.17809404 -1.02544201 0 0 Z M-24.01669312 9.08248901 C-27.2137758 9.17148007 -30.40933272 9.28427307 -33.60546875 9.40234375 C-34.76951736 9.44436417 -35.93356598 9.48638458 -37.13288879 9.52967834 C-39.57585413 9.61859298 -42.01878108 9.70856839 -44.46166992 9.79956055 C-48.18720203 9.93748897 -51.91291458 10.06948415 -55.63867188 10.20117188 C-58.02345078 10.28870148 -60.4082169 10.37658012 -62.79296875 10.46484375 C-63.89835495 10.50343002 -65.00374115 10.5420163 -66.1426239 10.58177185 C-71.81990774 10.79889685 -77.37577696 11.18938908 -83 12 C-80.11704126 14.30912741 -77.28949008 15.91762878 -73.92578125 17.43359375 C-72.88558838 17.90788818 -71.84539551 18.38218262 -70.77368164 18.87084961 C-69.6314917 19.38784424 -68.48930176 19.90483887 -67.3125 20.4375 C-52.85149772 27.0434228 -38.57398911 34.01227083 -24.30395508 41.01928711 C-19.54120603 43.35702451 -14.77295032 45.68316737 -10 48 C-9.31492371 48.3339679 -8.62984741 48.66793579 -7.92401123 49.01202393 C-6.08770814 49.90354791 -4.2452367 50.78233528 -2.40234375 51.66015625 C-1.39550537 52.14234619 -0.38866699 52.62453613 0.64868164 53.12133789 C1.4246167 53.41129639 2.20055176 53.70125488 3 54 C3.66 53.67 4.32 53.34 5 53 C3.81297188 47.47750747 2.60406316 41.96044679 1.37451172 36.44726562 C0.95925805 34.57066969 0.55004221 32.69272717 0.14697266 30.81347656 C-0.43309907 28.11407642 -1.03463646 25.42024665 -1.640625 22.7265625 C-1.81684387 21.88380768 -1.99306274 21.04105286 -2.17462158 20.17276001 C-2.44444855 19.00177261 -2.44444855 19.00177261 -2.71972656 17.80712891 C-2.87072815 17.11873932 -3.02172974 16.43034973 -3.17730713 15.72109985 C-4.29318681 13.38664379 -5.69864196 13.06859805 -8 12 C-8.99 10.515 -8.99 10.515 -10 9 C-12.2375526 8.61714917 -12.2375526 8.61714917 -14.8371582 8.78735352 C-16.32404648 8.82821579 -16.32404648 8.82821579 -17.8409729 8.86990356 C-19.8990211 8.95465901 -21.95767007 9.02618671 -24.01669312 9.08248901 Z M1 12 C2.09857156 17.01800615 3.20140272 22.0350504 4.30810547 27.05126953 C4.68361295 28.75609289 5.05797712 30.46116851 5.43115234 32.16650391 C5.96928728 34.62470431 6.51159502 37.08195323 7.0546875 39.5390625 C7.21935516 40.29555084 7.38402283 41.05203918 7.55368042 41.83145142 C8.01190647 43.89411755 8.50227716 45.9465754 9 48 C9.36955811 49.65394775 9.36955811 49.65394775 9.74658203 51.34130859 C11.46487562 54.98607236 13.31616193 55.49374781 17 57 C20.06436423 57.42769699 20.06436423 57.42769699 23.28076172 57.34057617 C25.11198074 57.34023628 25.11198074 57.34023628 26.98019409 57.33988953 C28.28352692 57.32440567 29.58685974 57.30892181 30.9296875 57.29296875 C32.28874237 57.28736703 33.64780334 57.28309966 35.00686646 57.28010559 C38.56784055 57.26870194 42.12844215 57.23927429 45.68927002 57.20599365 C49.32925377 57.17519543 52.96929825 57.16157952 56.609375 57.14648438 C63.73973486 57.11439956 70.86984299 57.06325826 78 57 C74.54929 54.19644361 71.14316745 51.78772245 67.29296875 49.55859375 C66.1639917 48.90149414 65.03501465 48.24439453 63.87182617 47.56738281 C63.27228119 47.22082642 62.67273621 46.87427002 62.05502319 46.51721191 C58.82341907 44.64885414 55.59987875 42.76665254 52.375 40.88671875 C51.69910324 40.49320221 51.02320648 40.09968567 50.326828 39.69424438 C43.12496952 35.49818199 35.95271634 31.25258817 28.7862854 26.99636841 C26.72878674 25.77451822 24.67043877 24.55410791 22.61206055 23.33374023 C21.32853015 22.57159181 20.04508016 21.80930794 18.76171875 21.046875 C18.15712326 20.68835953 17.55252777 20.32984406 16.92961121 19.96046448 C13.66724604 18.01896616 10.45434282 16.01887042 7.26953125 13.953125 C4.20550352 11.74358219 4.20550352 11.74358219 1 12 Z M-106.62890625 17.83203125 C-107.31384659 18.13558029 -107.99878693 18.43912933 -108.70448303 18.75187683 C-110.99239834 19.76785154 -113.27754092 20.78989556 -115.5625 21.8125 C-116.34977478 22.1633667 -117.13704956 22.5142334 -117.94818115 22.87573242 C-132.92250722 29.5503774 -147.80725895 36.41539567 -162.66235352 43.35083008 C-173.38941609 48.35530138 -184.16635511 53.23053211 -195 58 C-194.67 58.66 -194.34 59.32 -194 60 C-191.84427174 60.65510851 -191.84427174 60.65510851 -189.19238281 61.0690918 C-187.65508514 61.34398689 -187.65508514 61.34398689 -186.08673096 61.62443542 C-184.97014099 61.81411392 -183.85355103 62.00379242 -182.703125 62.19921875 C-181.56220398 62.39852493 -180.42128296 62.59783112 -179.24578857 62.80317688 C-176.82542204 63.2235014 -174.40426904 63.63931778 -171.98242188 64.05102539 C-168.27750301 64.68281002 -164.57626627 65.33352616 -160.875 65.98632812 C-158.52623986 66.39177483 -156.1772872 66.79610814 -153.828125 67.19921875 C-152.71963196 67.39496994 -151.61113892 67.59072113 -150.46905518 67.79240417 C-149.43158142 67.96621109 -148.39410767 68.14001801 -147.32519531 68.3190918 C-145.96071259 68.55320015 -145.96071259 68.55320015 -144.56866455 68.79203796 C-141.81587807 69.01490672 -139.66902247 68.66725562 -137 68 C-135.97471191 67.74972046 -135.97471191 67.74972046 -134.92871094 67.49438477 C-129.20297537 65.68190619 -127.06399539 63.11135896 -124.25 57.9375 C-123.40540316 56.48909707 -122.5576161 55.04255081 -121.70703125 53.59765625 C-121.26955566 52.84371582 -120.83208008 52.08977539 -120.38134766 51.31298828 C-118.0462411 47.40298484 -115.48820695 43.6464371 -112.9375 39.875 C-111.93018786 38.37293317 -110.92366802 36.87033469 -109.91796875 35.3671875 C-109.43118652 34.63983398 -108.9444043 33.91248047 -108.44287109 33.16308594 C-106.19177931 29.78835274 -103.96121726 26.40097983 -101.75 23 C-101.36706787 22.41847168 -100.98413574 21.83694336 -100.58959961 21.23779297 C-98.59671072 18.35569967 -98.59671072 18.35569967 -98 15 C-101.15337399 15 -103.79325028 16.56246269 -106.62890625 17.83203125 Z M-87 17 C-84.19682718 26.85664379 -80.72971539 36.46888338 -77.3125 46.125 C-75.229375 52.02375 -73.14625 57.9225 -71 64 C-49.22 61.69 -27.44 59.38 -5 57 C-8.41875699 54.43593226 -11.37353229 52.72105104 -15.1875 50.8828125 C-15.7939032 50.58938965 -16.4003064 50.2959668 -17.02508545 49.99365234 C-19.01455162 49.03285102 -21.00712771 48.07871394 -23 47.125 C-24.39362349 46.45440729 -25.78717727 45.78366968 -27.18066406 45.11279297 C-38.60311127 39.62476774 -50.08802766 34.27588119 -61.59375 28.96484375 C-70.09269448 25.04019628 -78.54944375 21.02754344 -87 17 Z M-93 20 C-94.5624514 22.2089164 -96.07026321 24.4329991 -97.55859375 26.69140625 C-98.25336571 27.73674782 -98.25336571 27.73674782 -98.96217346 28.8032074 C-100.45719673 31.05416927 -101.94742541 33.30825992 -103.4375 35.5625 C-104.40788381 37.02560246 -105.37858343 38.48849551 -106.34960938 39.95117188 C-108.27820241 42.85670441 -110.2040048 45.76406109 -112.12841797 48.67236328 C-114.06024771 51.5889311 -116.00250353 54.49815127 -117.95361328 57.40185547 C-118.41993668 58.09689682 -118.88626007 58.79193817 -119.36671448 59.50804138 C-120.25342382 60.8285511 -121.14197095 62.14782909 -122.03257751 63.4657135 C-124.0919115 66.02577114 -124.0919115 66.02577114 -125 69 C-118.96133684 69.07701137 -113.0992665 68.83958181 -107.09765625 68.1953125 C-106.29388046 68.11127167 -105.49010468 68.02723083 -104.66197205 67.94064331 C-102.98198512 67.76320215 -101.30226097 67.58325618 -99.62280273 67.40087891 C-97.04570226 67.12319 -94.46735971 66.86014424 -91.88867188 66.59765625 C-90.24990521 66.42276088 -88.6112295 66.24701072 -86.97265625 66.0703125 C-85.81649559 65.95455368 -85.81649559 65.95455368 -84.63697815 65.8364563 C-80.36696641 65.45983294 -80.36696641 65.45983294 -77 63 C-81.95 48.81 -86.9 34.62 -92 20 C-92.33 20 -92.66 20 -93 20 Z M-11.44262695 62.64257812 C-13.36405266 62.85279602 -13.36405266 62.85279602 -15.32429504 63.06726074 C-16.71229692 63.22186572 -18.10029217 63.37653019 -19.48828125 63.53125 C-20.91600489 63.688428 -22.34375495 63.84536627 -23.77153015 64.0020752 C-27.51838428 64.41396939 -31.26487187 64.82910896 -35.0112915 65.24493408 C-38.83869111 65.669163 -42.66642971 66.09030964 -46.49414062 66.51171875 C-53.9964282 67.33813603 -61.4983311 68.16798343 -69 69 C-67.76444568 72.8300665 -66.51914813 76.65680839 -65.26464844 80.48071289 C-64.83908966 81.78256542 -64.41622513 83.08530184 -63.99609375 84.38891602 C-63.39247787 86.26026762 -62.7784223 88.12824178 -62.1640625 89.99609375 C-61.79748535 91.12200928 -61.4309082 92.2479248 -61.05322266 93.40795898 C-60.27678759 96.13672485 -60.27678759 96.13672485 -58 97 C-55.62633161 95.85035121 -53.39711068 94.64131563 -51.125 93.3125 C-50.41811035 92.90676758 -49.7112207 92.50103516 -48.98291016 92.08300781 C-41.7162956 87.88872736 -34.53229212 83.55392004 -27.3515625 79.21484375 C-23.52854167 76.90913359 -19.68804227 74.63568883 -15.8359375 72.37890625 C-14.82096191 71.78368164 -13.80598633 71.18845703 -12.76025391 70.57519531 C-10.77728029 69.41403801 -8.79261727 68.25576027 -6.80615234 67.10058594 C-5.91621582 66.57883789 -5.0262793 66.05708984 -4.109375 65.51953125 C-3.31499023 65.05651611 -2.52060547 64.59350098 -1.70214844 64.11645508 C-0.85958496 63.56380981 -0.85958496 63.56380981 0 63 C0 62.67 0 62.34 0 62 C-3.8668642 61.9259548 -7.59964586 62.21810684 -11.44262695 62.64257812 Z M20 63 C22.78239736 65.78239736 24.68552818 67.61752026 27.8515625 69.63671875 C28.60832275 70.12366211 29.36508301 70.61060547 30.14477539 71.11230469 C30.96324951 71.63211914 31.78172363 72.15193359 32.625 72.6875 C34.40800138 73.83133119 36.19052792 74.9759028 37.97265625 76.12109375 C38.93316895 76.73710449 39.89368164 77.35311523 40.88330078 77.98779297 C44.26685348 80.17228626 47.63333749 82.38135414 50.99609375 84.59765625 C52.18081698 85.37737497 53.36555002 86.1570788 54.55029297 86.93676758 C56.3018781 88.08972619 58.05282291 89.24359903 59.80181885 90.40048218 C61.44007363 91.48359793 63.08130647 92.56220515 64.72265625 93.640625 C65.66890869 94.26485352 66.61516113 94.88908203 67.59008789 95.53222656 C70.00397876 97.12543766 70.00397876 97.12543766 73 98 C74.7415189 93.6638957 76.46835589 89.32233922 78.18188477 84.97509766 C78.76675574 83.49727286 79.35559706 82.02101294 79.94848633 80.54638672 C80.80039158 78.42554966 81.63782475 76.29948099 82.47265625 74.171875 C82.74030289 73.51443298 83.00794952 72.85699097 83.28370667 72.17962646 C84.75144556 68.39100448 85.0238092 67.0952368 84 63 C62.88 63 41.76 63 20 63 Z M-198 65 C-197.46164839 72.74648263 -196.31274166 80.19881908 -194.71484375 87.79296875 C-194.49429825 88.86501053 -194.27375275 89.93705231 -194.04652405 91.0415802 C-193.34917948 94.42475368 -192.64349149 97.80612156 -191.9375 101.1875 C-191.45973097 103.49793208 -190.98251223 105.80847802 -190.50585938 108.11914062 C-189.34359354 113.74742485 -188.17449504 119.37425574 -187 125 C-181.03881703 120.06002739 -175.58513698 114.71470138 -170.12890625 109.2265625 C-169.206577 108.3028183 -168.28424774 107.3790741 -167.33396912 106.42733765 C-164.90366186 103.99324569 -162.47637504 101.55616403 -160.04974365 99.1184082 C-157.56430636 96.6226689 -155.07597068 94.12982292 -152.58789062 91.63671875 C-147.72244904 86.7606114 -142.86019802 81.88133369 -138 77 C-138.495 76.01 -138.495 76.01 -139 75 C-141.82000359 74.21137994 -141.82000359 74.21137994 -145.2890625 73.6328125 C-145.9363028 73.5131311 -146.58354309 73.39344971 -147.25039673 73.2701416 C-149.37379617 72.87982453 -151.49923226 72.50218684 -153.625 72.125 C-155.0818211 71.86049793 -156.53852656 71.59535816 -157.99511719 71.32958984 C-161.64379353 70.66634602 -165.2943396 70.01412823 -168.94567871 69.36572266 C-171.99862889 68.82221807 -175.04993127 68.26960496 -178.1015625 67.71875 C-180.15085322 67.35310892 -182.20031988 66.98845191 -184.25 66.625 C-185.1879541 66.45758301 -186.1259082 66.29016602 -187.09228516 66.11767578 C-187.9538623 65.9679834 -188.81543945 65.81829102 -189.703125 65.6640625 C-190.44208008 65.53467285 -191.18103516 65.4052832 -191.94238281 65.27197266 C-194.3149992 64.91264086 -194.3149992 64.91264086 -198 65 Z M-209.16796875 70.7890625 C-209.80718262 71.39468018 -210.44639648 72.00029785 -211.10498047 72.62426758 C-211.79221191 73.28450928 -212.47944336 73.94475098 -213.1875 74.625 C-214.63125992 75.99635752 -216.07527688 77.36744448 -217.51953125 78.73828125 C-218.25896973 79.44291504 -218.9984082 80.14754883 -219.76025391 80.87353516 C-223.27562053 84.21110255 -226.8255865 87.51122709 -230.375 90.8125 C-234.73654241 94.85506168 -234.73654241 94.85506168 -239 99 C-239 99.99 -239 100.98 -239 102 C-237.792229 102.58116577 -237.792229 102.58116577 -236.56005859 103.17407227 C-233.49926944 104.64751785 -230.43894558 106.12192199 -227.37890625 107.59692383 C-226.06821173 108.22847802 -224.75734621 108.85967747 -223.44628906 109.49047852 C-221.5340246 110.41062728 -219.6223834 111.33205841 -217.7109375 112.25390625 C-217.07661804 112.55922272 -216.44229858 112.86453918 -215.78875732 113.17910767 C-212.5145219 114.76103756 -209.25743241 116.36978491 -206.02050781 118.02685547 C-205.38279449 118.35201645 -204.74508118 118.67717743 -204.08804321 119.01219177 C-202.32771096 119.91307889 -200.57120315 120.82142765 -198.81494141 121.73022461 C-196.05890398 123.20559317 -196.05890398 123.20559317 -193 123 C-194.55418165 111.258061 -197.10621776 99.75180028 -199.625 88.1875 C-200.04983161 86.22338349 -200.47431345 84.25919129 -200.8984375 82.29492188 C-201.92826418 77.52906636 -202.96280889 72.76425798 -204 68 C-206.70078598 68 -207.23458407 68.94151403 -209.16796875 70.7890625 Z M91 68 C87.53330785 74.59069979 84.80773002 81.34631681 82.1875 88.3125 C81.55811523 89.93768555 81.55811523 89.93768555 80.91601562 91.59570312 C80.52478516 92.63275391 80.13355469 93.66980469 79.73046875 94.73828125 C79.37364014 95.67712158 79.01681152 96.61596191 78.64916992 97.58325195 C77.73138619 100.11333612 77.73138619 100.11333612 79 103 C80.51458102 104.30736329 80.51458102 104.30736329 82.453125 105.46875 C83.20416504 105.94868408 83.95520508 106.42861816 84.72900391 106.9230957 C85.56093262 107.44347412 86.39286133 107.96385254 87.25 108.5 C89.05545128 109.64853984 90.8600865 110.79836313 92.6640625 111.94921875 C93.66211914 112.5839209 94.66017578 113.21862305 95.68847656 113.87255859 C99.38281041 116.24593114 103.04912719 118.65892306 106.7109375 121.08203125 C108.03352462 121.95573526 109.35611576 122.82943318 110.67871094 123.703125 C112.65180305 125.00690782 114.62405813 126.31187423 116.59387207 127.62060547 C118.44787031 128.85152431 120.30554184 130.07670527 122.1640625 131.30078125 C123.24123535 132.01403564 124.3184082 132.72729004 125.42822266 133.4621582 C127.78667085 135.17107105 127.78667085 135.17107105 130 135 C128.70891809 131.60997279 127.24218459 128.47839169 125.453125 125.32421875 C124.94491211 124.42574219 124.43669922 123.52726562 123.91308594 122.6015625 C123.36426758 121.63992187 122.81544922 120.67828125 122.25 119.6875 C121.67797852 118.68074219 121.10595703 117.67398438 120.51660156 116.63671875 C114.100312 105.37248851 107.57559916 94.17183975 101 83 C100.27079346 81.75863281 100.27079346 81.75863281 99.52685547 80.4921875 C98.25180249 78.32527686 96.97124781 76.16176792 95.6875 74 C95.32043945 73.37673828 94.95337891 72.75347656 94.57519531 72.11132812 C93.74523756 70.72347683 92.87730927 69.35841435 92 68 C91.67 68 91.34 68 91 68 Z M2 68 C-11.9181909 75.93350876 -25.75132538 83.98474445 -39.4375 92.3125 C-40.04831421 92.68398163 -40.65912842 93.05546326 -41.28845215 93.4382019 C-49.93300539 97.80717566 -49.93300539 97.80717566 -56.09375 104.5 C-55.94393398 110.09313154 -52.71992922 113.58055054 -49.5 118 C-48.12317764 119.95015362 -46.74689219 121.90068639 -45.37109375 123.8515625 C-44.65421387 124.85606445 -43.93733398 125.86056641 -43.19873047 126.89550781 C-39.57981319 132.00522935 -36.07635296 137.19274786 -32.5625 142.375 C-31.29351032 144.23734831 -30.02402945 146.09936208 -28.75390625 147.9609375 C-27.8359375 149.30729167 -26.91796875 150.65364583 -26 152 C-22.52527171 149.29518096 -21.57566015 145.57182703 -20.25683594 141.546875 C-20.00119873 140.79047729 -19.74556152 140.03407959 -19.48217773 139.25476074 C-18.64050009 136.75611528 -17.8120526 134.25331469 -16.984375 131.75 C-16.40386762 130.01251916 -15.82282591 128.27521676 -15.24127197 126.53808594 C-14.02509757 122.89840736 -12.81546002 119.2566382 -11.61035156 115.61328125 C-10.06341025 110.93824376 -8.50034691 106.26878687 -6.93236923 101.60076904 C-5.73001489 98.01536026 -4.53622988 94.42714422 -3.34503937 90.8380127 C-2.77193912 89.11470362 -2.19615365 87.39228518 -1.61766815 85.67077637 C-0.81157174 83.26768358 -0.01707477 80.86106177 0.77441406 78.453125 C1.01641541 77.73926636 1.25841675 77.02540771 1.50775146 76.28991699 C2.86717209 72.18429509 2.86717209 72.18429509 2 68 Z M9 70 C5.3179517 80.73285 1.64735522 91.46953815 -2.00730896 102.21174622 C-3.65167834 107.04454534 -5.29915072 111.87622576 -6.95507812 116.70507812 C-8.50135091 121.21516122 -10.03722071 125.72865961 -11.56558228 130.24484253 C-12.14582658 131.95356868 -12.72978013 133.66103984 -13.31747437 135.36721802 C-14.13685768 137.74811224 -14.9430077 140.13309935 -15.74609375 142.51953125 C-15.9911969 143.22188904 -16.23630005 143.92424683 -16.48883057 144.64788818 C-18.06096314 149.33266194 -18.06096314 149.33266194 -17 154 C-15.30222891 155.69777109 -13.20568235 155.14911092 -10.875 155.15234375 C-1.58677943 155.08001744 7.66853552 154.41126598 16.93212891 153.77319336 C20.02079654 153.56107175 23.10993565 153.35723713 26.19921875 153.15429688 C28.17451203 153.0213206 30.14977372 152.8878741 32.125 152.75390625 C33.04273193 152.6934462 33.96046387 152.63298615 34.90600586 152.57069397 C39.01110593 152.28388684 42.98560095 151.96560039 47 151 C40.75464118 136.95707331 34.32245386 123.00249129 27.87316895 109.0524292 C21.86567243 96.05723311 15.89414977 83.04710038 10 70 C9.67 70 9.34 70 9 70 Z M17 70 C17.63751077 74.1694559 19.03683631 77.53022171 20.8515625 81.328125 C21.14261871 81.94222733 21.43367493 82.55632965 21.73355103 83.18904114 C22.36355428 84.51735414 22.99595381 85.84453273 23.63049316 87.17068481 C25.33617313 90.736921 27.02287157 94.31211989 28.7109375 97.88671875 C29.06172363 98.62856918 29.41250977 99.37041962 29.77392578 100.13475037 C33.67854879 108.40791475 37.47125709 116.73126152 41.25 125.0625 C41.56946594 125.76564331 41.88893188 126.46878662 42.21807861 127.1932373 C45.20588406 133.77046381 48.1704525 140.3528844 51 147 C51.99 147 52.98 147 54 147 C56.3349845 141.24194189 58.64966698 135.47629751 60.94580078 129.70263672 C61.72996263 127.7391474 62.51965461 125.77785736 63.31494141 123.81884766 C64.45631089 121.00460955 65.5776414 118.18309423 66.6953125 115.359375 C67.05561554 114.48319519 67.41591858 113.60701538 67.78713989 112.70428467 C68.10762299 111.88373596 68.42810608 111.06318726 68.75830078 110.21777344 C69.04698029 109.49829529 69.33565979 108.77881714 69.63308716 108.03753662 C70.11321708 105.37128407 69.44874207 104.2393404 68 102 C66.39942446 100.59287332 66.39942446 100.59287332 64.44921875 99.43359375 C63.70140137 98.95688232 62.95358398 98.4801709 62.18310547 97.98901367 C61.35955566 97.47701416 60.53600586 96.96501465 59.6875 96.4375 C57.89110866 95.29816438 56.09559203 94.15744887 54.30078125 93.015625 C53.30900879 92.38720703 52.31723633 91.75878906 51.29541016 91.11132812 C47.60580177 88.74744211 43.94700002 86.34022404 40.29296875 83.921875 C39.63787827 83.48903702 38.98278778 83.05619904 38.30784607 82.61024475 C35.67232729 80.8688167 33.03690318 79.12729504 30.40585327 77.37911987 C28.55195594 76.14827787 26.69437493 74.92319097 24.8359375 73.69921875 C23.75876465 72.98596436 22.6815918 72.27270996 21.57177734 71.5378418 C19.21332915 69.82892895 19.21332915 69.82892895 17 70 Z M-87.40625 70.7421875 C-88.20857056 70.83001495 -89.01089111 70.91784241 -89.83752441 71.0083313 C-91.52896055 71.19486801 -93.21999948 71.38503781 -94.91064453 71.57861328 C-97.49041399 71.87390275 -100.07117314 72.15865275 -102.65234375 72.44140625 C-104.29954742 72.6243866 -105.94668529 72.80796054 -107.59375 72.9921875 C-108.36158813 73.07765839 -109.12942627 73.16312927 -109.92053223 73.25119019 C-113.65500727 73.68037752 -117.32854097 74.1874491 -121 75 C-118.64637929 76.56908047 -116.70882874 77.63827623 -114.14624023 78.72412109 C-113.37791367 79.05141205 -112.6095871 79.378703 -111.81797791 79.71591187 C-110.98988113 80.06489532 -110.16178436 80.41387878 -109.30859375 80.7734375 C-108.44871353 81.13845367 -107.58883331 81.50346985 -106.70289612 81.87954712 C-104.88025758 82.65258023 -103.05699299 83.42413867 -101.2331543 84.19433594 C-98.47115033 85.36078875 -95.71099666 86.5315269 -92.95117188 87.703125 C-91.17458724 88.45598425 -89.39789772 89.20859606 -87.62109375 89.9609375 C-86.8071666 90.3058725 -85.99323944 90.6508075 -85.15464783 91.00619507 C-80.95426247 92.7790233 -76.74484629 94.52965413 -72.52368164 96.25244141 C-71.7055751 96.58724518 -70.88746857 96.92204895 -70.04457092 97.26699829 C-68.04822141 98.11249285 -68.04822141 98.11249285 -66 98 C-66.63361084 91.91400113 -68.28355519 86.40718452 -70.25 80.625 C-70.53746094 79.71105469 -70.82492188 78.79710937 -71.12109375 77.85546875 C-71.56388672 76.55416016 -71.56388672 76.55416016 -72.015625 75.2265625 C-72.27633789 74.43846191 -72.53705078 73.65036133 -72.80566406 72.83837891 C-73.86343097 70.81721659 -73.86343097 70.81721659 -76.09863281 70.18945312 C-79.92539526 69.93957365 -83.61099624 70.2997132 -87.40625 70.7421875 Z M-127 80 C-124.79844019 84.4613962 -122.56951011 88.90810329 -120.32714844 93.34912109 C-119.38919473 95.22261288 -118.46109775 97.10105481 -117.54003906 98.98291016 C-116.00310071 102.12290753 -114.44068463 105.2492539 -112.875 108.375 C-112.38483398 109.39150635 -111.89466797 110.4080127 -111.38964844 111.45532227 C-110.90786133 112.40592529 -110.42607422 113.35652832 -109.9296875 114.3359375 C-109.50929199 115.18720215 -109.08889648 116.0384668 -108.65576172 116.91552734 C-106.35610452 119.81061333 -104.62322097 120.39036728 -101 121 C-97.90726146 120.07351926 -97.90726146 120.07351926 -94.90234375 118.2734375 C-93.77119141 117.65339844 -92.64003906 117.03335938 -91.47460938 116.39453125 C-90.29555177 115.7213912 -89.1165155 115.0482138 -87.9375 114.375 C-86.75552037 113.72351006 -85.57258434 113.07375213 -84.38867188 112.42578125 C-79.26357183 109.5781786 -74.50723778 106.77111941 -70 103 C-75.4210459 100.68666068 -80.84304425 98.37557226 -86.26586914 96.06640625 C-88.10368625 95.28346889 -89.94125896 94.49995753 -91.77856445 93.71582031 C-108.93522726 84.76712067 -108.93522726 84.76712067 -127 80 Z M-135 81 C-135.88328979 82.00027222 -135.88328979 82.00027222 -136.78442383 83.02075195 C-142.47573071 89.35513232 -148.37799711 95.38560038 -154.51171875 101.29296875 C-156.02568806 102.76206333 -157.53935633 104.23146821 -159.05273438 105.70117188 C-161.3836832 107.96393396 -163.72041636 110.21870852 -166.07788086 112.45385742 C-168.3894402 114.65032627 -170.67100888 116.87449492 -172.94921875 119.10546875 C-173.65841965 119.76508102 -174.36762054 120.4246933 -175.09831238 121.10429382 C-178.5081994 124.49352986 -180.43886059 126.80090418 -180.60791016 131.72314453 C-180.3048048 135.23981147 -179.62707514 137.56948381 -177.32421875 140.32421875 C-176.74889404 141.03562012 -176.17356934 141.74702148 -175.58081055 142.47998047 C-174.95601807 143.20846191 -174.33122559 143.93694336 -173.6875 144.6875 C-173.05175049 145.46496582 -172.41600098 146.24243164 -171.76098633 147.04345703 C-170.46737677 148.62509367 -169.16557027 150.20006317 -167.85546875 151.76806641 C-165.23475792 154.92050567 -162.7091619 158.14323591 -160.1875 161.375 C-159.74905762 161.9316333 -159.31061523 162.4882666 -158.85888672 163.06176758 C-154.47324443 168.63371708 -150.22428986 174.30503145 -146 180 C-143.58660818 179.62787569 -142.33273876 179.3861055 -140.71069336 177.50390625 C-140.34081299 176.86324219 -139.97093262 176.22257812 -139.58984375 175.5625 C-139.16292236 174.8408667 -138.73600098 174.1192334 -138.29614258 173.37573242 C-137.84779053 172.59174072 -137.39943848 171.80774902 -136.9375 171 C-135.96301514 169.34903233 -134.98639755 167.69932191 -134.0078125 166.05078125 C-133.51055664 165.20854004 -133.01330078 164.36629883 -132.50097656 163.49853516 C-130.19875534 159.66624302 -127.76026254 155.92782884 -125.3125 152.1875 C-124.4060562 150.78397931 -123.49980247 149.38033585 -122.59375 147.9765625 C-120.94103348 145.42493543 -119.25392362 142.90326052 -117.53125 140.3984375 C-116.79130425 139.28669946 -116.05169936 138.17473445 -115.3125 137.0625 C-114.66925781 136.12535156 -114.02601563 135.18820313 -113.36328125 134.22265625 C-111.21268189 129.1388612 -111.07462071 123.90385318 -112.76109314 118.61167908 C-113.83750446 116.18990152 -115.01718598 113.86293062 -116.26953125 111.52734375 C-116.70633713 110.67821915 -117.14314301 109.82909454 -117.59318542 108.95423889 C-118.51255162 107.17713216 -119.44168853 105.40504892 -120.38012695 103.63793945 C-121.81936002 100.92456687 -123.22515027 98.19575755 -124.62695312 95.46289062 C-125.52674694 93.73338575 -126.42837485 92.00483358 -127.33203125 90.27734375 C-127.96501884 89.05252541 -127.96501884 89.05252541 -128.61079407 87.80296326 C-129.01098251 87.05450638 -129.41117096 86.3060495 -129.82348633 85.53491211 C-130.17212234 84.87446396 -130.52075836 84.21401581 -130.87995911 83.53355408 C-132.01058993 81.67447099 -132.01058993 81.67447099 -135 81 Z M-246 111 C-247.60158507 114.55161439 -248.55288177 118.25275677 -249.55078125 122.01171875 C-249.85445114 123.09508011 -250.15812103 124.17844147 -250.47099304 125.29463196 C-251.43626009 128.75419782 -252.37461495 132.22042198 -253.3125 135.6875 C-253.96243312 138.03499308 -254.6141051 140.38200549 -255.26757812 142.72851562 C-256.86526705 148.4802528 -258.44092656 154.23768331 -260 160 C-259.34 160.66 -258.68 161.32 -258 162 C-245.08143935 155.60038334 -232.23999245 149.08227596 -219.50488281 142.32519531 C-214.78206373 139.82661227 -210.04653878 137.35223892 -205.3125 134.875 C-203.5169255 133.93489885 -201.72135244 132.99479496 -199.92578125 132.0546875 C-198.61720204 131.36976389 -197.30861431 130.68485655 -196 130 C-199.09233953 126.66331819 -202.74993108 124.98513748 -206.80859375 123.05859375 C-207.57172379 122.69024918 -208.33485382 122.3219046 -209.12110901 121.94239807 C-211.55711573 120.76819188 -213.99717809 119.60270742 -216.4375 118.4375 C-218.07645157 117.64967014 -219.71512675 116.861265 -221.35351562 116.07226562 C-225.0047275 114.31458558 -228.6576751 112.5606436 -232.31613159 110.81808472 C-233.6626393 110.16390214 -234.98952982 109.46939773 -236.30883789 108.76196289 C-240.29036485 106.96806284 -242.91862852 108.33953062 -246 111 Z M75 108 C73.18093301 112.56984189 71.36631272 117.14141568 69.55566406 121.71459961 C68.94000052 123.26780956 68.32315691 124.82055232 67.70507812 126.37280273 C66.81324252 128.61318009 65.92576413 130.8552428 65.0390625 133.09765625 C64.76502594 133.78336197 64.49098938 134.46906769 64.20864868 135.17555237 C62.54390439 139.40051213 61.18174039 143.61459631 60 148 C71.74906774 148.26921154 83.40597013 147.53412609 95.12451172 146.77319336 C98.38868479 146.56161297 101.65326172 146.35745485 104.91796875 146.15429688 C107.01565255 146.02126702 109.11330983 145.88781829 111.2109375 145.75390625 C112.17566986 145.6934462 113.14040222 145.63298615 114.1343689 145.57069397 C119.45640135 145.22186328 124.71501553 144.71969213 130 144 C127.35041095 141.21224682 124.72525027 139.00283806 121.4921875 136.92578125 C120.59975342 136.34836182 119.70731934 135.77094238 118.7878418 135.17602539 C117.826604 134.56106201 116.86536621 133.94609863 115.875 133.3125 C113.81608103 131.98487922 111.7575012 130.65673239 109.69921875 129.328125 C108.61560059 128.63009766 107.53198242 127.93207031 106.41552734 127.21289062 C102.85146427 124.90993774 99.30956575 122.57403488 95.76953125 120.234375 C94.57638909 119.4474272 93.38319299 118.66056116 92.18994141 117.8737793 C90.44223331 116.72137537 88.69540777 115.56775021 86.95135498 114.40982056 C85.32838436 113.33287293 83.70139184 112.26199373 82.07421875 111.19140625 C81.14182373 110.57467041 80.20942871 109.95793457 79.2487793 109.32250977 C77.14747824 107.83102192 77.14747824 107.83102192 75 108 Z M-73.90234375 111.95703125 C-75.03994141 112.57513672 -76.17753906 113.19324219 -77.34960938 113.83007812 C-78.54562596 114.49078941 -79.74158903 115.15159757 -80.9375 115.8125 C-82.12915294 116.46233058 -83.32120654 117.11142702 -84.51367188 117.75976562 C-87.68467108 119.49152241 -90.85076662 121.22897179 -94 123 C-94.92707764 123.51594727 -95.85415527 124.03189453 -96.80932617 124.56347656 C-99.17571896 125.83971792 -99.17571896 125.83971792 -100.0859375 128.33984375 C-99.95994499 132.23988468 -98.21690865 133.70206027 -95.625 136.5625 C-94.68755746 137.62536339 -93.75271906 138.69052851 -92.8203125 139.7578125 C-92.3449707 140.29696289 -91.86962891 140.83611328 -91.37988281 141.39160156 C-89.29810839 143.81812844 -87.40133639 146.36831068 -85.5 148.9375 C-80.74461503 155.35270521 -75.88796486 161.68570567 -71 168 C-70.42991211 168.73686035 -69.85982422 169.4737207 -69.27246094 170.23291016 C-67.41236755 172.635654 -65.55027192 175.03683228 -63.6875 177.4375 C-63.10073486 178.19498535 -62.51396973 178.9524707 -61.90942383 179.73291016 C-58.68004093 183.88846439 -55.39612604 187.97944553 -52 192 C-46.76943331 187.02814457 -42.87969206 181.33751977 -38.87744141 175.36181641 C-37.62171863 173.49512208 -36.34458049 171.64433726 -35.06640625 169.79296875 C-34.26426679 168.60247652 -33.46343832 167.41109968 -32.6640625 166.21875 C-31.93654785 165.14560547 -31.2090332 164.07246094 -30.45947266 162.96679688 C-28.76045641 160.1377159 -28.76045641 160.1377159 -29.18408203 157.25048828 C-30.16960516 154.5321902 -31.47633333 152.66288096 -33.25 150.375 C-37.11390504 145.24390029 -40.76791834 140.00217265 -44.375 134.6875 C-48.42513242 128.74750173 -52.48156847 122.81294512 -56.625 116.9375 C-57.22707275 116.07161255 -57.22707275 116.07161255 -57.84130859 115.18823242 C-59.75583539 112.49266103 -61.20620508 110.86252995 -64 109 C-68.45000991 109 -70.05853376 109.85272082 -73.90234375 111.95703125 Z M-107 134 C-108.41120003 135.51965071 -108.41120003 135.51965071 -109.64453125 137.6015625 C-110.15000488 138.39167725 -110.65547852 139.18179199 -111.17626953 139.99584961 C-111.98620361 141.29727905 -111.98620361 141.29727905 -112.8125 142.625 C-113.37565918 143.51131104 -113.93881836 144.39762207 -114.51904297 145.31079102 C-115.72462938 147.21009568 -116.92564229 149.1123095 -118.12255859 151.01708984 C-120.02315017 154.03678138 -121.94054822 157.04514634 -123.86328125 160.05078125 C-126.28043304 163.83185965 -128.69551476 167.61418741 -131.1015625 171.40234375 C-131.58963379 172.17054443 -132.07770508 172.93874512 -132.58056641 173.73022461 C-133.04897949 174.47925049 -133.51739258 175.22827637 -134 176 C-134.55478027 176.85795166 -135.10956055 177.71590332 -135.68115234 178.59985352 C-137.24078654 180.98176561 -137.24078654 180.98176561 -137 184 C-129.0148143 185.93934564 -120.95643502 187.08700087 -112.82421875 188.19921875 C-111.36691314 188.40042981 -109.90962275 188.60175111 -108.4523468 188.80317688 C-105.4161024 189.22180969 -102.37945419 189.63735956 -99.3425293 190.05102539 C-95.45330848 190.5812947 -91.56562226 191.1220433 -87.67821026 191.66539288 C-84.67720779 192.08320598 -81.67529195 192.494132 -78.67307472 192.90311623 C-77.23862957 193.09963306 -75.8045185 193.29860494 -74.37076378 193.50009727 C-72.37146303 193.78029766 -70.37069043 194.04993469 -68.36987305 194.3190918 C-66.66519112 194.55320015 -66.66519112 194.55320015 -64.92607117 194.79203796 C-62.27087707 194.9807482 -60.49603682 194.84540613 -58 194 C-63.5761263 186.72790902 -69.17967992 179.47825214 -74.8125 172.25 C-79.50333274 166.22669697 -84.17304662 160.18797647 -88.8125 154.125 C-89.34770264 153.42737549 -89.88290527 152.72975098 -90.43432617 152.01098633 C-92.8979054 148.79090792 -95.33479291 145.55761707 -97.70703125 142.26953125 C-98.11912842 141.70282715 -98.53122559 141.13612305 -98.95581055 140.55224609 C-100.0437175 139.04975777 -101.11999838 137.5388702 -102.1953125 136.02734375 C-102.79085937 135.35832031 -103.38640625 134.68929687 -104 134 C-104.99 134 -105.98 134 -107 134 Z M-196 136 C-197.86502465 136.65123868 -197.86502465 136.65123868 -199.92041016 137.76318359 C-200.72950836 138.17466644 -201.53860657 138.58614929 -202.3722229 139.01010132 C-203.25227997 139.46825226 -204.13233704 139.9264032 -205.0390625 140.3984375 C-205.95271576 140.86682037 -206.86636902 141.33520325 -207.80770874 141.81777954 C-209.7549226 142.81796412 -211.70014791 143.82202788 -213.64355469 144.82958984 C-216.56020962 146.34141639 -219.48252986 147.84173511 -222.40625 149.33984375 C-233.40681627 154.99540663 -244.27669664 160.83463123 -255 167 C-252.09985091 169.31514229 -249.21381352 170.97987399 -245.859375 172.55859375 C-244.87066406 173.02716797 -243.88195312 173.49574219 -242.86328125 173.97851562 C-241.83589844 174.45998047 -240.80851562 174.94144531 -239.75 175.4375 C-237.72365283 176.39388424 -235.6976055 177.35090404 -233.671875 178.30859375 C-232.70314453 178.76218262 -231.73441406 179.21577148 -230.73632812 179.68310547 C-228.28792198 180.86143369 -225.90661601 182.1210376 -223.515625 183.41015625 C-220.3331216 185.1618679 -220.3331216 185.1618679 -217.96264648 184.93066406 C-215.02399039 183.53718763 -214.44343165 181.61415362 -213.08203125 178.69921875 C-212.55375732 177.58522705 -212.0254834 176.47123535 -211.48120117 175.32348633 C-210.92455165 174.1116818 -210.36832615 172.89968241 -209.8125 171.6875 C-209.23849079 170.46261646 -208.66336994 169.23825327 -208.0871582 168.0144043 C-206.36969494 164.35272158 -204.68206856 160.67808313 -203 157 C-202.26668457 155.39753418 -202.26668457 155.39753418 -201.51855469 153.76269531 C-198.97771777 148.19023973 -196.472514 142.60308727 -194 137 C-194.66 136.67 -195.32 136.34 -196 136 Z M-190 141 C-192.0481294 145.33594582 -194.0926287 149.67357927 -196.1340332 154.01269531 C-196.82643963 155.48319648 -197.51977166 156.95326224 -198.21411133 158.42285156 C-200.50353305 163.26948296 -202.76409131 168.12846201 -205 173 C-205.55252441 174.19431641 -206.10504883 175.38863281 -206.67431641 176.61914062 C-207.1491748 177.68841797 -207.6240332 178.75769531 -208.11328125 179.859375 C-208.53005127 180.78717773 -208.94682129 181.71498047 -209.3762207 182.67089844 C-209.58206787 183.43950195 -209.78791504 184.20810547 -210 185 C-209.34 185.99 -208.68 186.98 -208 188 C-207.979375 188.90878906 -207.95875 189.81757813 -207.9375 190.75390625 C-206.43367347 195.9609056 -202.33951133 197.97162346 -198 200.9375 C-196.33246931 202.11205555 -194.66579994 203.28783487 -193 204.46484375 C-192.17628906 205.03960449 -191.35257813 205.61436523 -190.50390625 206.20654297 C-187.1557019 208.60474004 -183.9320732 211.146862 -180.71484375 213.71704102 C-179.22349019 215.09984185 -179.22349019 215.09984185 -178 215 C-178.60772336 206.27211391 -179.68089877 197.67484451 -180.99609375 189.02734375 C-181.18969986 187.74187149 -181.38330597 186.45639923 -181.58277893 185.13197327 C-181.98929842 182.43821345 -182.3990151 179.74496301 -182.81079102 177.05200195 C-183.33760845 173.60336925 -183.85369201 170.1532205 -184.36718655 166.70258236 C-184.86168998 163.39312949 -185.36703296 160.08535437 -185.87109375 156.77734375 C-186.05449814 155.53991928 -186.23790253 154.30249481 -186.42686462 153.02757263 C-186.60367264 151.88530716 -186.78048065 150.74304169 -186.96264648 149.56616211 C-187.11507309 148.56088974 -187.26749969 147.55561737 -187.42454529 146.5198822 C-187.8948259 143.7725977 -187.8948259 143.7725977 -190 141 Z M-183 142 C-182 144 -182 144 -182 144 Z M-182 144 C-181.43069898 153.08617632 -180.37273649 162.00740807 -178.96875 171 C-178.67478333 172.91897095 -178.67478333 172.91897095 -178.37487793 174.87670898 C-177.96425836 177.55612281 -177.55058254 180.23503797 -177.13427734 182.91357422 C-176.60224976 186.33673957 -176.07549289 189.76068858 -175.55068207 193.18496704 C-175.04586357 196.47773436 -174.53864319 199.77012835 -174.03125 203.0625 C-173.84268433 204.28646484 -173.65411865 205.51042969 -173.45983887 206.77148438 C-173.28295532 207.91037109 -173.10607178 209.04925781 -172.92382812 210.22265625 C-172.6918573 211.71937866 -172.6918573 211.71937866 -172.4552002 213.24633789 C-171.93318881 218.29173367 -171.93318881 218.29173367 -169.56738281 222.50708008 C-168.6445752 223.13199341 -168.6445752 223.13199341 -167.703125 223.76953125 C-167.00179443 224.25800537 -166.30046387 224.74647949 -165.57788086 225.24975586 C-164.80968018 225.76546143 -164.04147949 226.28116699 -163.25 226.8125 C-161.60863927 227.95280149 -159.96940527 229.0961688 -158.33203125 230.2421875 C-157.46529785 230.84643555 -156.59856445 231.45068359 -155.70556641 232.07324219 C-150.1357984 236.0397292 -144.75340504 240.25817206 -139.34667969 244.44262695 C-134.03691128 248.52734264 -128.62667224 252.3634036 -123 256 C-123.60117531 251.85862878 -124.5278254 248.07398349 -125.88598633 244.11816406 C-126.27341507 242.98388977 -126.66084381 241.84961548 -127.06001282 240.68096924 C-127.4797789 239.47140564 -127.89954498 238.26184204 -128.33203125 237.015625 C-128.76942549 235.75103796 -129.20681866 234.48645055 -129.64421082 233.22186279 C-130.55923392 230.58130902 -131.47875641 227.94236679 -132.40063477 225.30419922 C-133.58077654 221.92372396 -134.74256647 218.53723876 -135.90025806 215.14902115 C-136.79549692 212.53934654 -137.70381045 209.93436403 -138.61578941 207.33049774 C-139.26088264 205.47796149 -139.89211545 203.62061758 -140.52314758 201.76324463 C-140.92003281 200.64157898 -141.31691803 199.51991333 -141.72583008 198.36425781 C-142.06922928 197.37419739 -142.41262848 196.38413696 -142.76643372 195.36407471 C-144.21269277 192.5923838 -145.25603276 192.28210933 -148 191 C-148.350625 189.7625 -148.70125 188.525 -149.0625 187.25 C-151.09745694 180.37514548 -155.99411828 175.27060512 -160.48291016 169.84814453 C-162.93798303 166.85733319 -165.30803144 163.80101861 -167.6875 160.75 C-169.03141896 159.03966618 -170.37724571 157.33084628 -171.72314453 155.62207031 C-172.96158398 154.04880231 -174.19762774 152.47364939 -175.43359375 150.8984375 C-176.15675781 149.98320312 -176.87992187 149.06796875 -177.625 148.125 C-178.25664062 147.32320312 -178.88828125 146.52140625 -179.5390625 145.6953125 C-180.02117187 145.13585937 -180.50328125 144.57640625 -181 144 C-181.33 144 -181.66 144 -182 144 Z M98.41259766 151.22680664 C95.2428112 151.43797892 92.07264315 151.64239098 88.90234375 151.84570312 C86.85674528 151.97877451 84.81117143 152.11222491 82.765625 152.24609375 C81.83308899 152.3065538 80.90055298 152.36701385 79.9397583 152.42930603 C73.94541732 152.83105786 67.97411286 153.36512831 62 154 C64.4746972 155.9253146 66.88643358 157.56900362 69.68847656 158.97363281 C70.39731995 159.33120667 71.10616333 159.68878052 71.83648682 160.05718994 C72.97703522 160.6244278 72.97703522 160.6244278 74.140625 161.203125 C74.94046814 161.6040033 75.74031128 162.00488159 76.56439209 162.41790771 C78.26134559 163.26706432 79.959309 164.11420531 81.65820312 164.95947266 C84.2022143 166.22620618 86.7419265 167.50124456 89.28125 168.77734375 C99.39296853 173.83690694 109.58857303 178.58972968 120 183 C123.37953988 176.5354673 126.11478703 169.92333444 128.75 163.125 C129.36681641 161.55878906 129.36681641 161.55878906 129.99609375 159.9609375 C132.13291632 155.11722101 132.13291632 155.11722101 133 150 C121.42627043 149.73742196 109.95471519 150.45727228 98.41259766 151.22680664 Z M137 156 C135.40305126 159.9279389 133.81852877 163.8605913 132.24536133 167.7980957 C131.70839292 169.13702782 131.16804517 170.47460981 130.62426758 171.81079102 C129.84345545 173.7310897 129.07490438 175.65590761 128.30859375 177.58203125 C127.60947876 179.31803589 127.60947876 179.31803589 126.89624023 181.08911133 C125.68438664 184.02213799 125.68438664 184.02213799 127 187 C129.51261827 188.35652339 131.95482939 189.54887263 134.5625 190.6875 C135.27341797 191.00783203 135.98433594 191.32816406 136.71679688 191.65820312 C138.47366662 192.44820496 140.23631345 193.22533623 142 194 C142.66 193.34 143.32 192.68 144 192 C143.89290189 189.45718496 143.66311343 187.07447922 143.3125 184.5625 C143.16965576 183.45177124 143.16965576 183.45177124 143.02392578 182.31860352 C141.86270608 173.51956673 140.4418232 164.75667292 139 156 C138.34 156 137.68 156 137 156 Z M29.66796875 157.62109375 C28.18119377 157.71741844 28.18119377 157.71741844 26.66438293 157.81568909 C24.57233508 157.95176635 22.48035094 158.08882633 20.38842773 158.22680664 C17.20900784 158.4360843 14.02933359 158.64110763 10.84960938 158.84570312 C8.80987903 158.97890956 6.77016492 159.11236503 4.73046875 159.24609375 C3.31908882 159.33678383 3.31908882 159.33678383 1.87919617 159.42930603 C-3.77013141 159.80546476 -9.37716094 160.33501011 -15 161 C-10.6616807 165.3982172 -6.18612395 169.64146647 -1.6875 173.875 C-0.96626953 174.55691406 -0.24503906 175.23882812 0.49804688 175.94140625 C4.63184986 179.8342252 8.82944099 183.63061287 13.11791992 187.35205078 C15.96487414 189.84484375 18.73200531 192.42027516 21.5 195 C29.17814846 202.80432547 29.17814846 202.80432547 38 209 C39.36483909 203.1048896 40.53724387 197.21046721 41.5078125 191.23828125 C41.70333206 190.04684761 41.70333206 190.04684761 41.90280151 188.8313446 C42.17467492 187.16862723 42.44517973 185.50568553 42.71435547 183.8425293 C43.12580849 181.30751879 43.54513892 178.77389011 43.96484375 176.24023438 C44.22964667 174.61466145 44.49398577 172.98901289 44.7578125 171.36328125 C44.88278107 170.61315262 45.00774963 169.86302399 45.13650513 169.09016418 C45.78737378 165.0174633 46.12923097 161.12360581 46 157 C40.5326987 156.90985161 35.11966437 157.26138104 29.66796875 157.62109375 Z M52 161 C50.52275145 166.61473902 49.38774757 172.18387072 48.4921875 177.91796875 C48.36184113 178.73824051 48.23149475 179.55851227 48.09719849 180.40364075 C47.82490686 182.1235503 47.55441142 183.84374511 47.28564453 185.56420898 C46.87437324 188.19150389 46.45512652 190.81744258 46.03515625 193.44335938 C45.77035471 195.12232042 45.50601566 196.80135448 45.2421875 198.48046875 C45.11721893 199.2607695 44.99225037 200.04107025 44.86349487 200.84501648 C44.28315188 204.59549657 43.85015245 208.2024485 44 212 C46.49612212 213.24806106 47.53432766 212.91583807 50.26611328 212.47094727 C51.14687531 212.33072647 52.02763733 212.19050568 52.93508911 212.04603577 C53.88721283 211.88775803 54.83933655 211.72948029 55.8203125 211.56640625 C56.79410858 211.40961899 57.76790466 211.25283173 58.77120972 211.09129333 C61.89014783 210.5877029 65.00754836 210.07520406 68.125 209.5625 C70.23558203 209.22011669 72.34625807 208.87831227 74.45703125 208.53710938 C79.63913141 207.69812768 84.81999588 206.85182184 90 206 C89.59121109 205.45508408 89.18242218 204.91016815 88.76124573 204.34873962 C88.2232988 203.63158279 87.68535187 202.91442596 87.13110352 202.17553711 C86.59856461 201.46562119 86.0660257 200.75570526 85.51734924 200.02427673 C84.31072519 198.41453461 83.1061741 196.80323869 81.90234375 195.19140625 C76.87945997 188.47092755 71.79966272 181.79598161 66.69311523 175.13891602 C66.17177002 174.45885498 65.6504248 173.77879395 65.11328125 173.078125 C64.59846191 172.41232422 64.08364258 171.74652344 63.55322266 171.06054688 C62.47570374 169.63108135 61.43037849 168.17699935 60.41162109 166.70507812 C59.64132568 165.60583008 59.64132568 165.60583008 58.85546875 164.484375 C58.40196045 163.81631836 57.94845215 163.14826172 57.48120117 162.45996094 C55.87183183 160.53201203 55.87183183 160.53201203 52 161 Z M66 164 C70.52577028 170.9921301 75.42076594 177.57755192 80.61328125 184.08520508 C83.45778804 187.66719033 86.20438405 191.21530563 88.640625 195.08984375 C90.81584902 198.46682695 92.87485921 201.4087566 96 204 C102.02218344 205.00694545 107.27200777 203.90933074 113 202 C114.47694961 198.98862104 114.47694961 198.98862104 115.6875 195.4375 C116.12449219 194.23996094 116.56148438 193.04242188 117.01171875 191.80859375 C117.33785156 190.88175781 117.66398437 189.95492187 118 189 C106.28963387 182.65999286 94.4152066 176.68983153 82.4375 170.875 C81.73825409 170.53395233 81.03900818 170.19290466 80.318573 169.84152222 C78.31733948 168.86651714 76.31348051 167.89715416 74.30859375 166.9296875 C73.14126709 166.36491699 71.97394043 165.80014648 70.77124023 165.21826172 C68.19938418 163.8658538 68.19938418 163.8658538 66 164 Z M-21 165 C-19.08550088 183.96646875 -17.15350539 202.93122581 -15.0723877 221.88024902 C-14.89946407 223.4570298 -14.72766598 225.03393444 -14.55700684 226.61096191 C-14.31871926 228.80873615 -14.07605674 231.00598143 -13.83203125 233.203125 C-13.69514893 234.44739258 -13.5582666 235.69166016 -13.41723633 236.97363281 C-13.08903084 240.03907083 -13.08903084 240.03907083 -12 243 C-7.54038513 242.41126854 -4.40559611 240.70983805 -0.5546875 238.4296875 C0.05583466 238.0703714 0.66635681 237.7110553 1.29537964 237.34085083 C3.24262596 236.1922457 5.18368916 235.03360214 7.125 233.875 C8.4058856 233.11917378 9.68713272 232.36395987 10.96875 231.609375 C14.07437921 229.77638956 17.16620773 227.92172878 20.25109863 226.05407715 C21.94354238 225.03402747 23.64498075 224.02894775 25.34667969 223.02441406 C26.34344727 222.42081055 27.34021484 221.81720703 28.3671875 221.1953125 C29.2422998 220.67211426 30.11741211 220.14891602 31.01904297 219.60986328 C33.11902445 218.15366739 33.11902445 218.15366739 33.90258789 215.94604492 C34.22360805 213.76537124 34.22360805 213.76537124 32.19140625 211.66796875 C31.32386719 210.84941406 30.45632813 210.03085937 29.5625 209.1875 C28.63179688 208.30191406 27.70109375 207.41632813 26.7421875 206.50390625 C23.94847639 203.95295352 21.13563639 201.43658937 18.26171875 198.9765625 C15.28614786 196.37614994 12.39581085 193.68858467 9.5 191 C5.44744699 187.24106029 1.36536488 183.53613851 -2.82421875 179.9296875 C-4.66803241 178.29442009 -6.47265031 176.63151414 -8.26953125 174.9453125 C-8.85283203 174.39939453 -9.43613281 173.85347656 -10.03710938 173.29101562 C-11.20244263 172.19747408 -12.36403951 171.09993439 -13.52148438 169.99804688 C-15.99803063 167.67647103 -17.73951218 166.08682927 -21 165 Z M-28 168 C-30.71428356 171.19122144 -33.07836821 174.63986336 -35.46899414 178.0769043 C-36.27389382 179.2233743 -37.09147067 180.36105974 -37.92211914 181.48901367 C-43.77563505 189.34341841 -43.77563505 189.34341841 -45.38671875 198.78125 C-44.32442338 204.39507638 -41.66466092 208.30759626 -38.125 212.6875 C-36.94332348 214.228946 -35.76367756 215.77195052 -34.5859375 217.31640625 C-33.6902002 218.47293701 -33.6902002 218.47293701 -32.77636719 219.65283203 C-29.44850938 224.05003172 -26.41253857 228.6478924 -23.34033203 233.2253418 C-22.25020736 234.83295676 -21.12857159 236.41913826 -20 238 C-19.67 238 -19.34 238 -19 238 C-19.65078176 223.26229613 -21.39505503 208.65045023 -23.0625 194 C-23.34736532 191.47139471 -23.63187334 188.94274914 -23.91601562 186.4140625 C-24.60655992 180.27557137 -25.3015076 174.13759153 -26 168 C-26.66 168 -27.32 168 -28 168 Z M-258 173 C-255.92163677 179.5815148 -253.45763114 185.93083121 -250.76953125 192.28515625 C-250.37424728 193.22685165 -249.97896332 194.16854706 -249.57170105 195.13877869 C-248.32172318 198.11466251 -247.06719258 201.08860137 -245.8125 204.0625 C-244.95868143 206.0929716 -244.10516287 208.12356937 -243.25195312 210.15429688 C-241.1714341 215.10432832 -239.08718455 220.05277566 -237 225 C-236.34 225 -235.68 225 -235 225 C-232.82451897 220.99070858 -230.67088273 216.97070912 -228.53637695 212.93945312 C-227.80784592 211.57076653 -227.07352257 210.20514633 -226.33325195 208.84277344 C-225.26783647 206.87960032 -224.22399739 204.90620528 -223.18359375 202.9296875 C-222.85032578 202.32631561 -222.5170578 201.72294373 -222.1736908 201.10128784 C-220.67897053 198.214477 -220.00136797 196.04971165 -219.91162109 192.78833008 C-221.45606734 188.83159598 -223.4114428 188.20436497 -227.23046875 186.45703125 C-227.85850906 186.16189133 -228.48654938 185.8667514 -229.13362122 185.56266785 C-231.1424084 184.62441226 -233.16387109 183.71823228 -235.1875 182.8125 C-236.53026526 182.19284937 -237.87207561 181.57112501 -239.21289062 180.94726562 C-241.69401987 179.79514092 -244.18011753 178.6582878 -246.67260742 177.53051758 C-248.9064918 176.50298649 -251.11828085 175.42611818 -253.3059082 174.3034668 C-255.80125011 172.8548244 -255.80125011 172.8548244 -258 173 Z M-135 191 C-130.65070935 196.15471484 -126.14193923 201.10842077 -121.5 206 C-120.08954886 207.49190877 -118.67939894 208.98410236 -117.26953125 210.4765625 C-116.20726318 211.60046387 -116.20726318 211.60046387 -115.12353516 212.74707031 C-111.20684827 216.90241483 -107.31789375 221.08364316 -103.4296875 225.265625 C-102.88957031 225.84570312 -102.34945312 226.42578125 -101.79296875 227.0234375 C-101.3239917 227.52794434 -100.85501465 228.03245117 -100.37182617 228.55224609 C-99.91912354 229.03000488 -99.4664209 229.50776367 -99 230 C-98.51700439 230.54672363 -98.03400879 231.09344727 -97.53637695 231.65673828 C-95.90936193 233.32700476 -95.90936193 233.32700476 -92.625 233.46875 C-88.18648746 232.89480441 -86.98621427 231.76126032 -84 228.5 C-82.71416016 227.12134766 -82.71416016 227.12134766 -81.40234375 225.71484375 C-78.89120827 222.8770565 -76.38945556 220.03422237 -73.93359375 217.1484375 C-70.55532208 213.39480231 -66.8888502 209.9253335 -63.2578125 206.41796875 C-60.81465629 204.13785764 -60.81465629 204.13785764 -60 201 C-67.38110393 199.23317065 -74.76924092 198.08851589 -82.28515625 197.0546875 C-83.54081894 196.87994904 -84.79648163 196.70521057 -86.0901947 196.525177 C-88.73314803 196.15861272 -91.37626324 195.79362328 -94.01977539 195.43115234 C-97.38823984 194.96893192 -100.75548342 194.49839721 -104.12247562 194.02558708 C-107.36350605 193.57190738 -110.60563844 193.12624772 -113.84765625 192.6796875 C-115.04681168 192.51097137 -116.2459671 192.34225525 -117.48146057 192.16842651 C-123.38135546 191.3669803 -129.0457955 190.80331045 -135 191 Z M123 192 C122.01 194.97 121.02 197.94 120 201 C124.95 200.34 129.9 199.68 135 199 C135 198.34 135 197.68 135 197 C133.37750059 196.16180842 131.75191503 195.3295884 130.125 194.5 C129.22007812 194.0359375 128.31515625 193.571875 127.3828125 193.09375 C125.13403141 191.86094411 125.13403141 191.86094411 123 192 Z M-214 197 C-215.91904891 200.49869876 -217.83480021 203.99919295 -219.75 207.5 C-220.28882813 208.48226562 -220.82765625 209.46453125 -221.3828125 210.4765625 C-227.21674353 219.7315023 -227.21674353 219.7315023 -230.0625 229.875 C-229.19119667 232.14388916 -229.19119667 232.14388916 -227.06616211 232.98388672 C-222.73360347 234.41967851 -218.33226309 235.39509734 -213.87890625 236.3828125 C-212.90138901 236.60194305 -211.92387177 236.82107361 -210.91673279 237.04684448 C-208.85374229 237.50783403 -206.79025782 237.9666178 -204.72631836 238.42333984 C-201.57551837 239.12211283 -198.42739418 239.83213187 -195.27929688 240.54296875 C-193.27098621 240.99027026 -191.26252735 241.43690707 -189.25390625 241.8828125 C-188.31623917 242.09527618 -187.37857208 242.30773987 -186.41249084 242.52664185 C-181.85744529 243.52461504 -177.69662721 244.26343495 -173 244 C-172.97664521 232.2995813 -172.97664521 232.2995813 -177.61865234 221.88818359 C-181.79069493 217.88489779 -186.57443464 214.76486049 -191.43798828 211.66748047 C-194.93487835 209.3915362 -198.25314351 206.89971732 -201.59936523 204.40991211 C-203.88863137 202.70780444 -206.18439346 201.01766009 -208.5 199.3515625 C-209.1290625 198.89604004 -209.758125 198.44051758 -210.40625 197.97119141 C-211.97358907 196.82654328 -211.97358907 196.82654328 -214 197 Z M-135 201 C-133.12387032 208.186794 -131.00386467 215.22336681 -128.53125 222.2265625 C-128.20966919 223.14086029 -127.88808838 224.05515808 -127.5567627 224.99716187 C-126.88334766 226.90531415 -126.20766922 228.81266908 -125.52978516 230.71923828 C-124.49156454 233.64880247 -123.47038433 236.58398543 -122.44921875 239.51953125 C-121.79009995 241.38057609 -121.12998045 243.24126688 -120.46875 245.1015625 C-120.16553833 245.98059235 -119.86232666 246.85962219 -119.54992676 247.76528931 C-119.25952515 248.57058075 -118.96912354 249.37587219 -118.66992188 250.20556641 C-118.41915894 250.91629303 -118.168396 251.62701965 -117.91003418 252.35928345 C-117.04101309 254.3620129 -117.04101309 254.3620129 -114 255 C-111.34551284 253.24761307 -111.34551284 253.24761307 -108.625 250.8125 C-107.68914062 250.01457031 -106.75328125 249.21664062 -105.7890625 248.39453125 C-104.86867187 247.60433594 -103.94828125 246.81414062 -103 246 C-101.33889773 244.65974077 -99.67406462 243.32403293 -98 242 C-98.51248256 237.86217786 -100.67430982 236.04914415 -103.625 233.25 C-107.40387104 229.58938666 -110.9373839 225.85771764 -114.35546875 221.86328125 C-116.53978441 219.38841529 -118.8854218 217.10217639 -121.2421875 214.79296875 C-123.12854056 212.86888863 -124.87537799 210.8612998 -126.625 208.8125 C-129.18866417 205.83216807 -131.80579753 203.32305634 -135 201 Z M141 203 C127.31866564 203.33126739 127.31866564 203.33126739 115.25830078 208.49902344 C112.2626331 212.76829834 110.75752861 217.88251075 111.1640625 223.109375 C112.36938478 225.83543099 114.06678457 227.93613137 115.9375 230.25 C116.64777344 231.14203125 117.35804688 232.0340625 118.08984375 232.953125 C119.03537109 233.96632813 119.03537109 233.96632813 120 235 C120.66 235 121.32 235 122 235 C123.61464103 232.84459753 125.10337281 230.69108459 126.5703125 228.4375 C127.0114035 227.77161865 127.45249451 227.1057373 127.9069519 226.41967773 C129.31949877 224.28401422 130.72230362 222.14214309 132.125 220 C133.07879395 218.5542696 134.03321298 217.10895138 134.98828125 215.6640625 C137.33281091 212.11412381 139.66862052 208.55858735 142 205 C141.67 204.34 141.34 203.68 141 203 Z M-50 206 C-50.95682033 211.04878643 -51.88368436 216.10182234 -52.78320312 221.16113281 C-53.09337943 222.88137841 -53.4116922 224.60017757 -53.73828125 226.31738281 C-54.20638757 228.7863582 -54.64497156 231.25905987 -55.078125 233.734375 C-55.23001282 234.50118591 -55.38190063 235.26799683 -55.53839111 236.05804443 C-56.11874502 239.52997604 -56.34465497 241.4487468 -54.44458008 244.48779297 C-51.35615245 246.39828141 -49.4300332 246.48821261 -45.80859375 246.4609375 C-44.61685547 246.45707031 -43.42511719 246.45320313 -42.19726562 246.44921875 C-40.95654297 246.42472656 -39.71582031 246.40023437 -38.4375 246.375 C-37.19291016 246.37371094 -35.94832031 246.37242187 -34.66601562 246.37109375 C-27.95362026 246.5629979 -27.95362026 246.5629979 -22 244 C-22.77601563 242.93265625 -23.55203125 241.8653125 -24.3515625 240.765625 C-25.44312366 239.26071783 -26.5342328 237.75548274 -27.625 236.25 C-28.20024414 235.45609863 -28.77548828 234.66219727 -29.36816406 233.84423828 C-34.53341878 226.69224003 -39.58811608 219.4657236 -44.59228516 212.20019531 C-45.43605713 210.98348145 -45.43605713 210.98348145 -46.296875 209.7421875 C-46.79541992 209.0188623 -47.29396484 208.29553711 -47.80761719 207.55029297 C-48.20110352 207.03869629 -48.59458984 206.52709961 -49 206 C-49.33 206 -49.66 206 -50 206 Z M-57 207 C-58.86327763 208.95704647 -60.68824255 210.93357809 -62.5 212.9375 C-66.21029783 217.00632348 -69.9499247 221.01020743 -73.875 224.875 C-77.47285261 228.43353181 -80.84689728 232.0384094 -84 236 C-84 236.66 -84 237.32 -84 238 C-81.27581165 239.03621277 -78.54697784 240.05411937 -75.8125 241.0625 C-75.04357422 241.35705078 -74.27464844 241.65160156 -73.48242188 241.95507812 C-69.30956253 243.47736587 -66.38434198 244.53759488 -62 243 C-59.6247853 231.03576351 -57.41488553 219.11961159 -56 207 C-56.33 207 -56.66 207 -57 207 Z M101 211 C102.65 212.98 104.3 214.96 106 217 C108.46278801 214.53721199 108.99771255 212.29323018 110 209 C104.9794171 208.49708619 104.9794171 208.49708619 101 211 Z M81.41796875 212.21484375 C80.60378983 212.34943497 79.7896109 212.48402618 78.95075989 212.62269592 C76.36154027 213.05267087 73.7745881 213.49489902 71.1875 213.9375 C69.42787003 214.23193169 67.66810554 214.52556058 65.90820312 214.81835938 C61.60385466 215.53628139 57.30149737 216.26519648 53 217 C58.50809328 220.67206219 64.69485133 223.24524398 70.68554688 226.04174805 C72.30513742 226.80243044 73.92077616 227.57158709 75.53222656 228.34936523 C77.86905259 229.47634007 80.21761261 230.57459194 82.5703125 231.66796875 C83.28003204 232.0168364 83.98975159 232.36570404 84.72097778 232.72514343 C90.11201611 235.17679147 94.22491189 235.15989685 100 234 C102.19850996 230.74188032 103.59253912 227.93709077 104 224 C101.76460575 219.27772965 98.88107417 215.54257447 95 212 C90.41160664 210.43716414 86.07027085 211.40492227 81.41796875 212.21484375 Z M32.29541016 224.32006836 C31.22081543 224.98659424 30.1462207 225.65312012 29.0390625 226.33984375 C28.45264984 226.69961807 27.86623718 227.0593924 27.26205444 227.43006897 C25.37695596 228.58968203 23.50100685 229.76324796 21.625 230.9375 C20.40032073 231.69430061 19.17506541 232.45016989 17.94921875 233.20507812 C15.50861886 234.70914039 13.07536734 236.22426564 10.64550781 237.74560547 C8.19314805 239.275051 5.71987973 240.75812028 3.22167969 242.21142578 C2.62060394 242.56596329 2.0195282 242.92050079 1.40023804 243.28578186 C-0.25256227 244.25816214 -1.91245054 245.21846562 -3.57275391 246.17797852 C-6.13756551 247.76645719 -6.13756551 247.76645719 -6.85302734 250.23022461 C-6.90152832 250.81425049 -6.9500293 251.39827637 -7 252 C-6.04222656 252.71542969 -5.08445312 253.43085938 -4.09765625 254.16796875 C-3.4627124 254.64331055 -2.82776855 255.11865234 -2.17358398 255.60839844 C-0.75138496 256.67221055 0.67231326 257.734021 2.09741211 258.79394531 C5.98635248 261.69676 9.82542158 264.64293397 13.6015625 267.69140625 C14.34801025 268.28606689 15.09445801 268.88072754 15.86352539 269.4934082 C17.30342795 270.64363569 18.73284452 271.80714402 20.15014648 272.98510742 C23.51742747 275.65381973 25.45016624 276.91602126 29.78515625 277.578125 C33.38698607 276.93040834 34.31943457 276.45274592 36.375 273.5 C39.19195869 269.30818614 39.73761944 265.9852307 40 261 C40.33 260.67 40.66 260.34 41 260 C41.46707964 252.49180387 40.78192977 244.96982402 40.0625 237.5 C39.93198242 236.03820312 39.93198242 236.03820312 39.79882812 234.546875 C39.31697902 229.1919848 39.31697902 229.1919848 38 224 C34.99778885 222.61020631 34.99778885 222.61020631 32.29541016 224.32006836 Z M52 224 C53.61139792 227.61707406 55.81894893 230.5097127 58.25 233.625 C58.88796509 234.44641479 58.88796509 234.44641479 59.53881836 235.28442383 C61.0221197 237.19257586 62.51074793 239.09648892 64 241 C65.88675245 243.41441641 67.77277933 245.82938928 69.65722656 248.24560547 C70.9163827 249.85940347 72.17741845 251.47173687 73.44042969 253.08251953 C74.01825195 253.82228027 74.59607422 254.56204102 75.19140625 255.32421875 C75.96786499 256.3155481 75.96786499 256.3155481 76.76000977 257.3269043 C78 259 78 259 79 261 C81.7876895 261.55499691 81.7876895 261.55499691 85 261 C87.0592451 258.76302243 88.45495686 256.92611775 90 254.375 C90.41894531 253.75753906 90.83789062 253.14007813 91.26953125 252.50390625 C93.15760971 249.5044505 94.07557123 247.59630426 93.625 244.04101562 C91.25564298 239.60701456 88.07819122 238.58498256 83.5625 236.6953125 C82.72662354 236.32646942 81.89074707 235.95762634 81.02954102 235.5776062 C78.36132143 234.40653974 75.68115131 233.26609954 73 232.125 C71.19449008 231.33521079 69.3897912 230.54356468 67.5859375 229.75 C60.00993962 225.855951 60.00993962 225.855951 52 224 Z M44 225 C45 227 45 227 45 227 Z M45 227 C44.70492709 234.14732156 45.11528663 241.25268735 45.6875 248.375 C45.74083496 249.24286133 45.79416992 250.11072266 45.84912109 251.00488281 C46.23707773 255.34562104 46.61706518 257.50096602 49.33203125 261.0390625 C52.94359502 263.69353543 55.92549653 264.09627483 60.328125 264.31640625 C61.52695312 264.37924805 61.52695312 264.37924805 62.75 264.44335938 C63.575 264.48267578 64.4 264.52199219 65.25 264.5625 C66.51070313 264.62727539 66.51070313 264.62727539 67.796875 264.69335938 C69.86440671 264.79908543 71.93218281 264.90001295 74 265 C72.44079301 259.91051302 69.30402293 256.43309653 65.9375 252.4375 C61.09472676 246.59922313 56.45016091 240.69582766 52 234.55078125 C49.85084713 231.80977183 47.50623806 229.41486479 45 227 Z M-169 230 C-169.18217376 238.00564709 -169.18217376 238.00564709 -165.5 244.625 C-164.675 245.07875 -163.85 245.5325 -163 246 C-162.67 246.66 -162.34 247.32 -162 248 C-158.65781007 249.34124916 -155.15245775 250.21419726 -151.6875 251.1875 C-150.72392578 251.47302734 -149.76035156 251.75855469 -148.76757812 252.05273438 C-147.83751953 252.31763672 -146.90746094 252.58253906 -145.94921875 252.85546875 C-145.09674561 253.09934326 -144.24427246 253.34321777 -143.3659668 253.59448242 C-140.87401483 254.02159337 -139.37304243 253.80220828 -137 253 C-151.92574002 238.83388989 -151.92574002 238.83388989 -169 230 Z M108 230 C106.37492804 232.8331162 106.37492804 232.8331162 105 236 C105.33 236.99 105.66 237.98 106 239 C108.97 239 111.94 239 115 239 C114.02501855 237.4972763 113.04490611 235.99788037 112.0625 234.5 C111.24458984 233.24703125 111.24458984 233.24703125 110.41015625 231.96875 C109.94480469 231.3190625 109.47945313 230.669375 109 230 C108.67 230 108.34 230 108 230 Z M-41.0625 251.5 C-42.50399414 251.57154297 -42.50399414 251.57154297 -43.97460938 251.64453125 C-46.31651284 251.76104386 -48.6582954 251.87956765 -51 252 C-47.5100003 256.16031905 -43.95634739 260.14462758 -40.0625 263.9375 C-37.17259218 266.79315706 -34.37347206 269.64832544 -31.75 272.75 C-26.24278682 279.20397381 -20.03219599 285.04310188 -14 291 C-11.87975194 286.75950388 -13.34877918 280.93957301 -13.66918945 276.25146484 C-13.81143353 274.14082442 -13.93848284 272.02963509 -14.06445312 269.91796875 C-14.15271886 268.57285552 -14.2418825 267.22780085 -14.33203125 265.8828125 C-14.45155151 264.04807373 -14.45155151 264.04807373 -14.57348633 262.17626953 C-15.10482129 258.21939038 -16.32156346 255.97694862 -18.5625 252.75 C-24.00122425 248.8452749 -34.50557987 251.16234371 -41.0625 251.5 Z M-10 257 C-9.78811671 261.64583598 -9.55777456 266.29024965 -9.31030273 270.93432617 C-9.22872472 272.51415014 -9.15219027 274.09424296 -9.08081055 275.67456055 C-8.97730446 277.94669771 -8.85567145 280.21724913 -8.73046875 282.48828125 C-8.70220505 283.19463211 -8.67394135 283.90098297 -8.64482117 284.6287384 C-8.47007731 287.52742678 -8.30604685 289.56521873 -6.61108398 291.97314453 C-4.96577069 293.23214835 -4.96577069 293.23214835 -2.4921875 292.94140625 C2.43550266 291.61302445 7.1273341 289.7998974 11.875 287.9375 C12.84953125 287.56044922 13.8240625 287.18339844 14.828125 286.79492188 C17.22077549 285.86835624 19.61126054 284.93659209 22 284 C22 283.01 22 282.02 22 281 C19.79567082 278.99442181 17.60933413 277.18162299 15.25 275.375 C14.57275879 274.84592041 13.89551758 274.31684082 13.19775391 273.77172852 C11.14006181 272.1701477 9.07185063 270.58320661 7 269 C6.40348633 268.54125488 5.80697266 268.08250977 5.19238281 267.60986328 C0.2513541 263.81601254 -4.63805644 260.17585151 -10 257 Z M17.67578125 290.96875 C16.13374023 291.57783203 16.13374023 291.57783203 14.56054688 292.19921875 C12.95276367 292.84310547 12.95276367 292.84310547 11.3125 293.5 C10.22904297 293.92925781 9.14558594 294.35851562 8.02929688 294.80078125 C5.35102385 295.86265161 2.67472262 296.92922497 0 298 C3.44718931 300.29812621 5.79800741 300.64663957 9.875 301.25 C11.08929688 301.44078125 12.30359375 301.6315625 13.5546875 301.828125 C17.15924997 302.00794444 18.96273249 301.93133529 22 300 C23.46179869 297.39766377 23.46179869 297.39766377 24.3125 294.375 C24.63863281 293.37210937 24.96476562 292.36921875 25.30078125 291.3359375 C25.53152344 290.56507813 25.76226562 289.79421875 26 289 C22.67396037 289 20.75464869 289.74400715 17.67578125 290.96875 Z M31 291 C29.31900979 294.89989729 28.07579687 298.01464073 27.75 302.25 C29.51791736 306.13941818 32.03053466 306.86161531 35.87109375 308.43359375 C38.03175055 309.2600189 38.03175055 309.2600189 40 308 C36.04 299.585 36.04 299.585 32 291 C31.67 291 31.34 291 31 291 Z M3 306 C5.7881588 308.87264846 8.63978401 311.64418592 11.625 314.3125 C12.19476563 314.82425781 12.76453125 315.33601563 13.3515625 315.86328125 C15.07789419 317.28384368 15.07789419 317.28384368 18 317 C18.3016748 313.6815772 18.35172282 311.61970211 16.6875 308.6875 C12.4535777 306.02899065 7.9106408 306.16933244 3 306 Z M24 313 C23.18828772 315.55519921 23.18828772 315.55519921 23 318 C26.16545202 319.58272601 28.74418878 318.33086619 32.125 317.5625 C33.40632813 317.27503906 34.68765625 316.98757813 36.0078125 316.69140625 C36.99523437 316.46324219 37.98265625 316.23507812 39 316 C36.84951754 313.84951754 35.45785938 313.24761825 32.625 312.25 C31.85414063 311.96640625 31.08328125 311.6828125 30.2890625 311.390625 C27.45391631 310.90681166 26.32665454 311.35583079 24 313 Z " fill="#0B0C11" transform="translate(291,68)"/>
</svg>
