<svg version="1.1" id="Layer_1" xmlns:x="ns_extend;" xmlns:i="ns_ai;" xmlns:graph="ns_graphs;" xmlns="http://www.w3.org/2000/svg" xmlns:xlink="http://www.w3.org/1999/xlink" x="0px" y="0px" viewBox="0 0 54.8 49.3" style="enable-background:new 0 0 54.8 49.3;" xml:space="preserve">
 <style type="text/css">
  .st0{fill:#1976D2;}
 </style>
 <metadata>
  <sfw xmlns="ns_sfw;">
   <slices>
   </slices>
   <sliceSourceBounds bottomLeftOrigin="true" height="49.3" width="54.8" x="-0.1" y="0.7">
   </sliceSourceBounds>
  </sfw>
 </metadata>
 <g>
  <path class="st0" d="M54,27.2c-1.5-1.9-6.4-4.6-6.4-4.6c2.2-0.2,4.6-0.9,4.6-0.9c2.2-0.7,2.3-1.8,2.3-1.8c0.2-1.2-2-2.1-2-2.1
		c-2.3-1.2-7-1.9-7-1.9c2-1.1,3.2-2.1,3.2-2.1c2-1.8,1.5-2.6,1.5-2.6c-0.3-1-2.5-1.3-2.5-1.3c-2-0.3-5.3,0.3-5.3,0.3
		C43.6,8.5,44,7,44,7c0.3-1.2-0.1-1.8-0.1-1.8c-0.5-0.9-2.5-0.5-2.5-0.5c-2.8,0.7-4.8,2-4.8,2c0.4-1.3,0.3-3.2,0.3-3.2
		c-0.1-0.7-0.2-1.7-0.9-2.1c-0.8-0.6-1.9-0.1-2.7,0.4c-0.7,0.5-1.4,1.1-2,1.8c-0.1,0.1-0.6,0.6-0.6,0.7c-0.2-0.7-0.4-1.4-0.7-2
		c-0.4-1-1.4-2.2-2.6-2.3l0,0l0,0l0,0l0,0c-1.2,0.1-2.2,1.3-2.6,2.3c-0.3,0.7-0.5,1.3-0.7,2c0-0.1-0.5-0.6-0.6-0.7
		c-0.6-0.7-1.2-1.3-2-1.8c-0.7-0.5-1.9-0.9-2.7-0.4c-0.6,0.5-0.8,1.4-0.9,2.1c0,0-0.1,1.9,0.3,3.2c0,0-2-1.3-4.8-2
		c0,0-1.9-0.4-2.5,0.5c0,0-0.5,0.6-0.1,1.8c0,0,0.5,1.5,1.7,3.1c0,0-3.3-0.6-5.3-0.3c0,0-2.2,0.2-2.5,1.3c0,0-0.5,0.9,1.5,2.6
		c0,0,1.2,1,3.2,2.1c0,0-4.7,0.7-7,1.9c0,0-2.1,1-2,2.1c0,0,0.1,1.1,2.3,1.8c0,0,2.4,0.8,4.6,0.9c0,0-5,2.6-6.4,4.6
		c0,0-1.2,1.2-0.9,2.2c0,0,0.3,1.3,3.8,1.1c0,0,2.8-0.2,6.1-1.2l0,0c0,0-3.3,3.8-4.3,5.8c0,0-2.2,3.4-0.9,4.8c0,0,0.6,0.8,3,0.1
		c0,0,3.3-1.1,6.9-4c0,0-1.5,4.1-1.6,7.3c0,0-0.3,3.1,1.3,3.8c0,0,1.4,0.7,3.9-2c0,0,3.1-3.4,4.9-6.8c0.2,1.9,0.5,3.8,1,5.7
		c0.3,1.2,0.7,2.3,1.2,3.4c0.4,0.8,1,1.9,2,2l0,0l0,0l0,0l0,0c1-0.1,1.6-1.2,2-2c0.5-1.1,0.9-2.2,1.2-3.4c0.5-1.9,0.8-3.8,1-5.7
		c1.8,3.4,4.9,6.8,4.9,6.8c2.6,2.7,3.9,2,3.9,2c1.6-0.6,1.3-3.8,1.3-3.8C41.4,40,40,35.9,40,35.9c3.5,2.9,6.9,4,6.9,4
		c2.4,0.7,3-0.1,3-0.1C51.2,38.5,49,35,49,35c-1-2-4.3-5.8-4.3-5.8l0,0c3.4,1,6.1,1.2,6.1,1.2c3.5,0.2,3.8-1.1,3.8-1.1
		C55.2,28.4,54,27.2,54,27.2L54,27.2z M48.2,26.8c0,0-0.5,2-8.3-0.3c0,0-4.4-1.4-6.3-2.5c0,0,4,6.8,4.4,12.2c0,0,0.3,2.6-1,3.1
		c0,0-1.4,0.6-4.2-2.9c0,0-3.4-4.1-5.3-10.1c-2,6.1-5.3,10.1-5.3,10.1c-2.8,3.5-4.2,2.9-4.2,2.9c-1.3-0.5-1-3.1-1-3.1
		c0.4-5.4,4.4-12.2,4.4-12.2c-1.9,1.1-6.3,2.5-6.3,2.5c-7.7,2.3-8.3,0.3-8.3,0.3c-0.6-1.7,3.8-4.3,3.8-4.3c3.4-2.2,8.6-3.8,8.6-3.8
		c-6.1-1.7-8.3-3.8-8.3-3.8c-1.9-1.6-1.3-2.3-1.3-2.3c0.9-1.6,6.3-0.6,6.3-0.6c3.9,0.7,6,1.8,6,1.8c-1.6-3-2-5.6-2-5.6
		c-0.5-3.3,0.9-3.6,0.9-3.6c1.1-0.4,2.6,1.1,2.6,1.1c3,3.1,4,6.1,4,6.1l0,0l0,0c0,0,1-3.1,4-6.1c0,0,1.5-1.5,2.6-1.1
		c0,0,1.4,0.3,0.9,3.6c0,0-0.4,2.6-2,5.6c0,0,2.1-1,6-1.8c0,0,5.3-1,6.3,0.6c0,0,0.6,0.7-1.3,2.3c0,0-2.2,2.1-8.3,3.8
		c0,0,5.2,1.6,8.6,3.8C44.3,22.5,48.8,25.1,48.2,26.8L48.2,26.8z">
  </path>
 </g>
</svg>