<svg xmlns="http://www.w3.org/2000/svg" viewBox="0 0 256 262" role="img" aria-label="Google logo">
  <path fill="#4285F4" d="M255.68 133.45c0-10.81-.97-21.18-2.77-31.18H130.56v58.98h70.03c-3.02 16.25-12.26 30.03-26.16 39.25v32.58h42.27c24.76-22.8 38.98-56.42 38.98-99.63z"/>
  <path fill="#34A853" d="M130.56 261.1c35.21 0 64.77-11.67 86.36-31.58l-42.27-32.58c-11.75 7.87-26.79 12.53-44.09 12.53-33.88 0-62.59-22.88-72.84-53.6H14.18v33.67c21.46 42.62 65.53 71.56 116.38 71.56z"/>
  <path fill="#FBBC04" d="M57.72 155.87c-2.61-7.87-4.1-16.25-4.1-24.87s1.49-17 4.1-24.87V72.46H14.18C5.14 90.42 0 110.7 0 131c0 20.3 5.14 40.58 14.18 58.54l43.54-33.67z"/>
  <path fill="#EA4335" d="M130.56 52.53c19.14 0 36.31 6.59 49.82 19.53l37.37-37.37C195.32 13.91 165.76 0 130.56 0 79.7 0 35.64 28.94 14.18 72.46l43.54 33.67c10.25-30.72 38.96-53.6 72.84-53.6z"/>
</svg>
